<svg xmlns="http://www.w3.org/2000/svg" width="119.956" height="110.494" viewBox="0 0 119.956 110.494">
  <g id="그룹_1846" data-name="그룹 1846" transform="translate(-592.976 -6418)">
    <g id="그룹_841" data-name="그룹 841" transform="translate(602.437 6418)">
      <rect id="사각형_789" data-name="사각형 789" width="110.494" height="110.494" transform="translate(0 0)" fill="none"/>
      <g id="그룹_839" data-name="그룹 839" transform="translate(13.408 10.168)">
        <rect id="사각형_780" data-name="사각형 780" width="6.543" height="34.252" rx="0.8" transform="translate(55.23 67.939) rotate(-45)" fill="#1461ff"/>
        <g id="타원_2545" data-name="타원 2545" transform="translate(0)" fill="none" stroke="#1461ff" stroke-width="5">
          <circle cx="37.798" cy="37.798" r="37.798" stroke="none"/>
          <circle cx="37.798" cy="37.798" r="35.298" fill="none"/>
        </g>
        <g id="그룹_840" data-name="그룹 840" transform="translate(20.034 25.199)">
          <rect id="사각형_785" data-name="사각형 785" width="6.3" height="9.45" rx="1" transform="translate(0 15.749)" fill="#ffc814"/>
          <rect id="사각형_786" data-name="사각형 786" width="6.3" height="15.749" rx="1" transform="translate(9.45 9.45)" fill="#1461ff"/>
          <rect id="사각형_787" data-name="사각형 787" width="6.3" height="22.049" rx="1" transform="translate(18.899 3.15)" fill="#ffc814"/>
          <rect id="사각형_788" data-name="사각형 788" width="6.3" height="25.199" rx="1" transform="translate(28.349)" fill="#1461ff"/>
        </g>
      </g>
    </g>
    <g id="그룹_1845" data-name="그룹 1845" transform="translate(579.259 6489.509)">
      <g id="그룹_1844" data-name="그룹 1844" transform="translate(0 0)">
        <path id="패스_392" data-name="패스 392" d="M3049.261,867.043l11.976-10.411,5.687,6.543a1.1,1.1,0,0,0,1.557.109l15.762-13.7,4.809,5.531,10.182-21.8-24.609,5.207,4.808,5.531-11.062,9.617-5.653-6.5a1.157,1.157,0,0,0-1.633-.114l-16.634,14.46a1.233,1.233,0,0,0-.122,1.74l3.19,3.67A1.233,1.233,0,0,0,3049.261,867.043Z" transform="translate(-3030.311 -834.854)" fill="#ffc814"/>
      </g>
    </g>
  </g>
</svg>
