<svg id="그룹_1944" data-name="그룹 1944" xmlns="http://www.w3.org/2000/svg" xmlns:xlink="http://www.w3.org/1999/xlink" width="13.493" height="16.586" viewBox="0 0 13.493 16.586">
  <defs>
    <clipPath id="clip-path">
      <rect id="사각형_896" data-name="사각형 896" width="13.493" height="16.586" fill="none"/>
    </clipPath>
  </defs>
  <g id="그룹_1943" data-name="그룹 1943" transform="translate(0 0)" clip-path="url(#clip-path)">
    <path id="패스_400" data-name="패스 400" d="M11.271,7.945a3.767,3.767,0,0,1,1.795-3.162,3.859,3.859,0,0,0-3.04-1.644c-1.279-.133-2.518.766-3.17.766s-1.668-.751-2.749-.73A4.052,4.052,0,0,0,.7,5.251C-.773,7.8.325,11.55,1.737,13.612c.705,1.01,1.53,2.138,2.61,2.1,1.056-.044,1.452-.673,2.727-.673s1.632.673,2.733.648c1.134-.018,1.849-1.014,2.53-2.033A8.237,8.237,0,0,0,13.493,11.3a3.643,3.643,0,0,1-2.222-3.35" transform="translate(0 0.876)" fill="#fff"/>
    <path id="패스_401" data-name="패스 401" d="M7.723,2.658A3.715,3.715,0,0,0,8.572,0,3.77,3.77,0,0,0,6.129,1.264a3.532,3.532,0,0,0-.872,2.56A3.12,3.12,0,0,0,7.723,2.658" transform="translate(1.468 0)" fill="#fff"/>
  </g>
</svg>
