<svg id="ico_calendar_b" xmlns="http://www.w3.org/2000/svg" xmlns:xlink="http://www.w3.org/1999/xlink" width="20" height="18.912" viewBox="0 0 20 18.912">
  <defs>
    <clipPath id="clip-path">
      <rect id="사각형_22" data-name="사각형 22" width="20" height="18.912" fill="#222" stroke="#222" stroke-width="0.5"/>
    </clipPath>
  </defs>
  <g id="그룹_8" data-name="그룹 8" clip-path="url(#clip-path)">
    <path id="패스_7" data-name="패스 7" d="M17.864,1.8H15.386V.427a.427.427,0,0,0-.854,0V1.8H5.468V.427a.427.427,0,1,0-.854,0V1.8H2.136A2.139,2.139,0,0,0,0,3.936v12.84a2.138,2.138,0,0,0,2.136,2.136h12.62a.429.429,0,0,0,.3-.125l4.817-4.817a.443.443,0,0,0,.12-.276c0-.009.005-9.758.005-9.758A2.139,2.139,0,0,0,17.864,1.8M2.136,2.654H4.614V3.7a1.883,1.883,0,1,0,.854,0V2.654h9.064V3.7a1.883,1.883,0,1,0,.854,0V2.654h2.477a1.283,1.283,0,0,1,1.282,1.282V8.17H.855V3.936A1.283,1.283,0,0,1,2.136,2.654m2.9,2.88a.427.427,0,0,0,.427-.427V4.6a1.028,1.028,0,1,1-.854,0v.505a.427.427,0,0,0,.427.427m9.919,0a.427.427,0,0,0,.427-.427V4.6a1.028,1.028,0,1,1-.854,0v.505a.427.427,0,0,0,.427.427M.855,16.776V9.025H19.146v4.216H16.465a2.139,2.139,0,0,0-2.136,2.136v2.681H2.136A1.283,1.283,0,0,1,.855,16.776m14.328.677V15.377A1.283,1.283,0,0,1,16.465,14.1h2.077Z" transform="translate(0 0)" fill="#222" stroke="#222" stroke-width="0.5"/>
  </g>
</svg>
