<svg xmlns="http://www.w3.org/2000/svg" xmlns:xlink="http://www.w3.org/1999/xlink" width="18" height="18.237" viewBox="0 0 18 18.237">
  <defs>
    <clipPath id="clip-path">
      <rect id="사각형_13" data-name="사각형 13" width="18" height="18.237" fill="none"/>
    </clipPath>
  </defs>
  <g id="ico_search_b" transform="translate(0 0)">
    <g id="그룹_1" data-name="그룹 1" transform="translate(0 0)" clip-path="url(#clip-path)">
      <path id="패스_2" data-name="패스 2" d="M3.52,8.363a5.033,5.033,0,1,0,5.071-5,5.034,5.034,0,0,0-5.071,5" transform="translate(-1.297 -1.241)" fill="#fff"/>
      <path id="패스_3" data-name="패스 3" d="M26.417,24.963l-.076-.076-1.85,1.823.044.044.483.49c.311.315.976.162,1.487-.341s.673-1.167.364-1.481Z" transform="translate(-9.026 -9.172)" fill="#222"/>
      <path id="패스_4" data-name="패스 4" d="M25.634,24.182,23.784,26l.446.446,1.851-1.823-.052-.053h0Z" transform="translate(-8.765 -8.912)" fill="#222"/>
      <path id="패스_5" data-name="패스 5" d="M7.211,0a7.159,7.159,0,1,0,3.863,13.15l3.944,3.942,1.851-1.822-3.918-3.916A7.151,7.151,0,0,0,7.211,0m.007,12.193a5.034,5.034,0,1,1,5.071-5,5.033,5.033,0,0,1-5.071,5" transform="translate(0 0)" fill="#222"/>
      <line id="선_1" data-name="선 1" x2="0.287" y2="0.156" transform="translate(7.837 6.873)" fill="#222"/>
    </g>
  </g>
</svg>
