<svg xmlns="http://www.w3.org/2000/svg" width="22" height="21" viewBox="0 0 22 21">
  <path id="star-on" d="M991.731,57.828l3.542,6.3a.381.381,0,0,0,.27.188l6.535,1.092a.379.379,0,0,1,.19.659L997.2,70.526a.375.375,0,0,0-.123.349l1.278,7.313a.383.383,0,0,1-.561.4l-6.21-3.4a.376.376,0,0,0-.367,0L985,78.587a.381.381,0,0,1-.559-.4l1.278-7.313a.379.379,0,0,0-.123-.349l-5.072-4.461a.379.379,0,0,1,.188-.659l6.537-1.092a.378.378,0,0,0,.269-.188l3.544-6.3A.383.383,0,0,1,991.731,57.828Z" transform="translate(-980.398 -57.635)" fill="#ffc72b"/>
</svg>
